<?xml version="1.0" standalone="no"?>
<!DOCTYPE svg PUBLIC "-//W3C//DTD SVG 20010904//EN"
 "http://www.w3.org/TR/2001/REC-SVG-20010904/DTD/svg10.dtd">
<svg version="1.0" xmlns="http://www.w3.org/2000/svg"
 width="643.000000pt" height="643.000000pt" viewBox="0 0 643.000000 643.000000"
 preserveAspectRatio="xMidYMid meet">

<g transform="translate(0.000000,643.000000) scale(0.100000,-0.100000)"
fill="#000000" stroke="none">
<path d="M1485 5650 c-158 -10 -211 -23 -325 -77 -128 -61 -237 -168 -299
-294 -55 -113 -70 -177 -81 -354 -12 -194 -12 -3234 0 -3425 11 -171 26 -235
82 -350 78 -162 249 -298 433 -345 114 -30 377 -34 1930 -34 1552 -1 1792 4
1910 34 236 60 430 254 490 490 30 118 35 359 35 1915 -1 1555 -5 1809 -35
1925 -59 230 -236 413 -470 484 -46 15 -118 25 -215 31 -168 11 -3274 11
-3455 0z m585 -1445 c143 -329 155 -353 191 -373 16 -9 29 -20 29 -24 0 -5
-72 -8 -160 -8 -100 0 -160 4 -160 10 0 6 10 10 23 10 13 0 32 6 42 14 19 13
18 16 -9 85 l-28 71 -118 0 -118 0 -21 -49 c-34 -80 -26 -104 37 -117 65 -13
29 -24 -78 -24 -101 0 -138 10 -92 24 11 4 29 17 40 29 17 18 199 408 278 596
8 20 18 30 23 25 4 -5 58 -126 121 -269z m2300 255 c27 -27 25 -63 -7 -184
-26 -101 -37 -125 -49 -113 -12 11 -64 209 -64 241 0 64 76 100 120 56z m-528
-210 l3 -220 73 71 c79 78 92 113 47 125 -54 14 -20 24 80 24 101 0 136 -12
77 -25 -16 -3 -59 -34 -96 -68 l-67 -62 81 -115 c91 -129 118 -160 137 -160 7
0 13 -4 13 -10 0 -6 -47 -10 -120 -10 -66 0 -120 3 -120 6 0 4 7 12 16 19 20
14 16 23 -52 120 -59 84 -74 77 -74 -31 0 -70 2 -75 25 -86 47 -21 25 -28 -95
-28 -120 0 -142 7 -95 28 l25 12 0 295 0 295 -25 12 c-45 20 -26 28 70 28 l95
0 2 -220z m-342 -12 c51 -26 85 -78 96 -146 l7 -42 -128 0 -127 0 7 -37 c10
-57 42 -111 75 -128 49 -25 79 -19 121 25 47 49 58 38 20 -22 -50 -79 -108
-107 -196 -93 -100 14 -162 114 -153 244 12 169 147 265 278 199z m1206 5 c35
-17 36 -17 50 1 8 11 16 17 19 14 9 -9 18 -158 9 -158 -5 0 -21 23 -37 50 -33
61 -82 90 -122 72 -24 -11 -32 -36 -17 -58 4 -6 41 -36 82 -66 98 -73 111 -89
117 -142 14 -117 -83 -190 -201 -153 -46 15 -51 15 -68 0 -10 -9 -21 -14 -24
-11 -2 3 -4 41 -2 84 l3 79 25 -45 c27 -48 80 -90 115 -90 12 0 30 9 40 20 30
33 12 62 -79 128 -114 83 -140 142 -98 222 34 64 116 87 188 53z m-2226 -2 c0
-5 -9 -11 -20 -14 -30 -8 -25 -33 29 -153 l50 -108 24 55 c64 147 70 186 30
204 -40 17 -25 25 52 25 41 0 75 -2 75 -4 0 -3 -13 -17 -28 -33 -19 -19 -58
-102 -122 -263 -51 -129 -104 -256 -117 -282 -38 -77 -119 -103 -168 -53 -42
41 -23 115 29 115 32 0 47 -14 55 -51 4 -19 13 -34 21 -34 18 0 52 50 69 102
13 40 13 41 -75 239 -55 124 -99 209 -116 226 -15 14 -28 29 -28 32 0 3 54 6
120 6 66 0 120 -4 120 -9z m680 4 c0 -3 -54 -94 -121 -202 -67 -109 -124 -202
-127 -207 -9 -15 121 0 156 18 18 9 41 34 53 57 11 23 23 39 25 36 3 -3 2 -37
-2 -76 l-7 -71 -198 0 c-110 0 -199 2 -199 5 0 3 56 96 124 208 l125 202 -61
3 c-73 4 -104 -13 -126 -69 -8 -21 -19 -39 -24 -39 -4 0 -8 32 -8 70 l0 70
195 0 c107 0 195 -2 195 -5z"/>
<path d="M1827 4138 l-46 -103 50 -3 c27 -2 71 -2 98 0 l48 3 -45 103 c-25 56
-48 102 -52 102 -4 0 -27 -46 -53 -102z"/>
<path d="M3385 4213 c-23 -22 -35 -57 -35 -99 l0 -34 66 0 66 0 -4 55 c-7 82
-52 120 -93 78z"/>
</g>
</svg>
